<svg xmlns="http://www.w3.org/2000/svg" width="400" height="114" fill="none" viewBox="0 0 400 114"><g clip-path="url(#a)"><path fill="#fefefe" d="M113.809 12.909c6.709-.197 14.078-.051 20.831-.059 7.617-.009 15.662-.143 23.251.018.21 2.095.133 4.959.133 7.106q.038 5.12-.069 10.239c-7.903-.044-16.077-.277-23.958.05-.142 3.678.037 8.733-.014 12.637q10.879.081 21.756-.054c.185 1.737.118 4.797.119 6.614q.033 5.293-.074 10.585c-1.745.062-4.455-.068-6.313-.085-4.649-.005-9.297-.023-13.944.093a11 11 0 0 1-1.575-.089c.258 8.677.029 17.423.114 26.106.014 1.326-.017 2.646-.236 3.956-.87.665-17.493.399-20.045.432-.372-3.215-.145-11.367-.145-14.973l.003-29.459-.021-21.713c-.005-2.487-.16-9.205.187-11.404m220.785 27.566c16.043-.948 27.063 8.383 27.477 24.06.039 1.45 1.867 4.448-1.064 4.525-2.595.068-5.151.024-7.717.022l-16.679-.023c-2.886-.008-6.963-.138-9.775.087-.132 7.668 5.788 12.307 13.235 10.16 2.3-.664 3.981-2.445 5.649-4.058 4.614.05 11.083.217 15.57-.078q.085.322.115.652c.188 1.74-2.54 6.092-3.686 7.548-8.881 11.29-28.996 10.778-39.669 2.285-10.13-8.062-11.204-26.281-3.138-36.216 5.34-6.578 11.676-8.26 19.682-8.964m4.473 18.631c1.317.005 6.446.253 7.19-.37.183-.662.012-1.116-.326-1.69-2.265-3.86-6.307-6.39-10.919-5.45-.383.038-.812.096-1.189.152-2.371.359-6.483 4.2-6.293 6.641.066.115.267.51.347.518 3.37.333 7.795.205 11.19.2M166.982 12.778c5.288-.178 11.525-.091 16.844-.101.181 6.748.072 13.847.072 20.616l-.006 35.928c0 2.631.334 19.076-.15 20.715-4.173.306-12.545.13-16.937.047-.172-4.574-.072-9.656-.072-14.284l.001-24.951c-.001-3.939-.343-36.387.248-37.97m118.922-.042c4.766-.01 11.405.164 16.052-.137.567 2.57.203 7.586.194 10.436l-.014 18.88.019 36.275c0 3.518-.019 7.018.176 10.535.028.5-.172.91-.496 1.283-5.024.008-11.747.195-16.63-.083-.441-4.34-.125-76.399-.035-76.646.129-.348.418-.395.734-.543m-90.729 29.462c.832.16 4.009.111 5.055.112q5.81.03 11.618-.098c.084 4.398.371 46.52-.168 47.718-4.608.283-12.055.137-16.801.054-.428-5.726-.073-15.473-.126-21.261-.033-3.585-.335-24.866.422-26.525m6.906-27.84c5.216-.606 9.951 3.093 10.622 8.3a9.59 9.59 0 0 1-8.167 10.724 9.6 9.6 0 0 1-8.951-3.645 9.593 9.593 0 0 1 6.496-15.38m35.84 32.786c1.836-1.757 3.837-3.738 6.2-4.689 17.469-7.03 33.746 7.533 32.852 25.19-1.015 20.034-23.749 31.962-38.942 17.89l.025 19.066c.002 1.863.107 7.902-.201 9.4h-16.789c-.341-4.64-.187-10.322-.187-15.066v-24.66l-.002-19.984c-.002-3.332-.143-8.694.186-11.933 2.003-.068 15.841-.37 16.602.28.602 1.361.352 3.011.256 4.505m12.28 29.46c5.83-1.045 9.7-6.63 8.629-12.455-1.072-5.824-6.676-9.667-12.497-8.569-5.784 1.091-9.597 6.65-8.533 12.437 1.066 5.786 6.608 9.624 12.401 8.587"/><path fill="#feda5a" d="M72.84 50.143c4.088 2.708 9.143 9.003 12.817 12.503 3.488 3.32 1.933 7.398 2.084 11.3-2.498 3.362-5.645 6.124-8.66 9.1-6.924 6.83-13.448 15.16-23.653 16.753-8.178 1.276-16.127-1.566-22.672-6.368-2.428-1.78-4.593-3.531-6.386-5.948.284-.013 1.185.098 1.444.157 6.524 1.5 10.129-2.112 14.304-6.492 2.557-2.682 5.608-5.254 7.788-8.496 1.403-1.16 1.875-1.91 3.09-3.07 4.07-3.994 8.332-7.968 12.196-12.154 2.296-2.487 5.48-4.87 7.649-7.285"/><path fill="#ef5d69" d="m12.644 26.293.005.05c.181 1.904-.752 5.166 0 7.01 2.233 5.47 7.906 9.314 11.792 13.65.616.69 2.543 2.548 3.328 2.996 4.5 5.142 10.638 10.507 15.414 15.538 2.351 2.478 4.575 4.318 6.724 7.115-2.18 3.242-5.231 5.814-7.789 8.496-4.175 4.38-7.78 7.992-14.304 6.492-.26-.06-1.16-.17-1.444-.157C24.3 86.122 5.916 67.541 4.653 65.522a36 36 0 0 1-3.29-6.825c-.355-.996-.887-3.055-1.338-3.84L0 54.813v-7.075c.593-1.397 1.398-4.614 2.019-6.267C4.398 35.142 7.64 30.7 12.644 26.293"/><path fill="#7f4d79" d="M45.512 0h7.159c1.603.676 3.727 1.093 5.59 1.69C62.896 3.174 71.8 9.103 74.568 13.02c-6.359-1.488-9.575-.872-14.179 3.983-3.215 3.39-7.256 6.82-10.218 10.367-4.63 6.071-11.023 11.255-16.22 16.882-.652.707-6.064 5.502-6.18 5.747-.786-.448-2.713-2.307-3.33-2.995-3.885-4.337-9.558-8.18-11.79-13.65-.754-1.845.18-5.107-.001-7.01l-.005-.05c.435-.882 17.864-17.985 19.908-19.975.605-.588 1.695-1.338 2.468-1.818 1.971-1.222 3.933-2.376 6.128-3.151C42.364.92 44.445.605 45.467.027z"/><path fill="#50ebfc" d="M50.17 27.37c2.962-3.546 7.003-6.977 10.218-10.367 4.604-4.855 7.82-5.471 14.179-3.984.953.685 6.376 6.203 7.373 7.27 6.79 7.265 16.25 13.679 17.897 24.115 1.471 9.32-1.258 16.551-6.724 23.892-1.056 1.417-3.987 4.758-5.372 5.65-.151-3.902 1.404-7.979-2.084-11.3-3.674-3.5-8.729-9.794-12.816-12.503-1.257-1.446-3.704-3.54-5.179-5.094-5.624-5.928-12.015-11.667-17.492-17.68"/><path fill="#fefefe" d="M373.589 27.937c1.834-.064 15.306-.227 16.57.035.984 2.74-.924 11.7.31 14.153 2.722.296 6.629.174 9.422.124v14.023c-1.68.245-7.348.16-9.156.056.22 4.018.494 31.334-.276 33.339-1.458.613-14.546.377-16.96.292-.234-1.896-.121-5.878-.115-7.917l.022-14.776c0-3.68.13-7.457-.383-11.09-2.004.162-3.081.283-5.122.236-.459-3.153-.265-10.89.026-14.137 1.47.078 3.784-.025 5.315-.045.337-4.746-.028-9.41.347-14.293"/><path fill="#fefefe" fill-opacity=".643" d="M390.159 27.972c1.269.943.961 12.613.31 14.153-1.234-2.453.674-11.413-.31-14.153"/></g><defs><clipPath id="a"><path fill="#fff" d="M0 0h399.891v114H0z"/></clipPath></defs></svg>